<?xml version="1.0" standalone="no"?>
<!DOCTYPE svg PUBLIC "-//W3C//DTD SVG 20010904//EN"
 "http://www.w3.org/TR/2001/REC-SVG-20010904/DTD/svg10.dtd">
<svg version="1.0" xmlns="http://www.w3.org/2000/svg"
 width="530.000000pt" height="160.000000pt" viewBox="0 0 530.000000 160.000000"
 preserveAspectRatio="xMidYMid meet">
<metadata>
Created by potrace 1.16, written by Peter Selinger 2001-2019
</metadata>
<g transform="translate(0.000000,160.000000) scale(0.100000,-0.100000)"
fill="#000000" stroke="none">
<path d="M460 1329 c0 -19 34 -51 77 -73 28 -14 31 -19 24 -39 -5 -13 -12 -52
-16 -89 -6 -55 -2 -85 24 -190 33 -134 38 -178 20 -178 -6 0 -9 -9 -6 -20 8
-31 -45 -101 -151 -196 -100 -90 -149 -117 -261 -148 -77 -22 -107 -40 -126
-76 l-14 -27 37 18 c50 26 113 24 213 -7 123 -39 206 -49 286 -36 62 10 67 10
97 -12 32 -25 79 -50 120 -66 18 -7 26 -5 30 6 3 9 2 12 -5 8 -6 -3 -40 8 -76
26 -74 36 -112 86 -139 179 -14 45 -14 55 -3 66 46 43 182 153 224 181 l50 33
285 2 c157 2 291 -1 298 -5 7 -4 12 -22 12 -40 0 -50 -37 -184 -67 -244 -79
-157 -258 -245 -464 -228 -43 3 -80 3 -83 -2 -9 -15 216 -13 273 2 40 11 58
12 68 4 11 -8 12 -7 7 6 -6 15 -2 18 29 20 6 1 46 35 88 76 63 62 81 88 107
152 18 42 32 85 32 95 0 11 4 23 9 29 25 26 36 96 36 226 l0 138 -27 0 c-30 0
-84 41 -93 71 -4 11 -9 18 -12 16 -8 -9 26 -65 49 -81 12 -9 33 -16 46 -16 24
0 24 -1 20 -80 -2 -55 -8 -84 -17 -89 -19 -12 -263 -24 -516 -25 -266 -1 -335
14 -335 73 0 15 -11 69 -24 121 -36 139 -39 173 -26 250 9 54 16 70 28 70 10
0 -10 15 -43 33 -33 18 -65 43 -72 57 -8 15 -13 19 -13 9z"/>
<path d="M903 1291 c-48 -12 -93 -42 -126 -84 -26 -31 -32 -49 -35 -101 -5
-77 17 -125 82 -183 148 -131 355 -46 356 145 0 90 -43 162 -122 203 -45 23
-110 31 -155 20z m158 -34 c64 -34 102 -93 107 -167 5 -72 -8 -112 -57 -163
-60 -63 -144 -74 -232 -29 -127 64 -169 214 -86 309 65 74 181 95 268 50z"/>
<path d="M2176 1220 c-63 -19 -96 -73 -96 -157 0 -102 52 -153 158 -153 27 0
63 5 81 11 l32 11 -3 77 -3 76 -57 3 -58 3 0 -31 c0 -23 4 -30 20 -30 16 0 20
-7 20 -30 0 -28 -2 -30 -39 -30 -30 0 -44 6 -55 22 -21 29 -21 117 -1 145 19
27 71 38 119 25 l36 -10 0 33 c0 28 -4 33 -31 39 -41 8 -87 6 -123 -4z"/>
<path d="M2476 1220 c-85 -26 -122 -138 -77 -237 23 -51 63 -73 128 -73 93 0
143 57 143 162 0 119 -81 181 -194 148z m88 -63 c20 -15 33 -97 22 -141 -17
-67 -94 -67 -116 0 -32 97 29 189 94 141z"/>
<path d="M3055 1218 c-3 -7 -25 -71 -49 -143 -24 -71 -48 -138 -52 -148 -6
-16 -2 -18 37 -15 37 3 44 7 49 28 5 23 11 25 63 28 57 3 57 3 63 -27 6 -29
10 -31 50 -31 l43 0 -54 156 c-30 86 -55 158 -55 160 0 11 -91 2 -95 -8z"/>
<path d="M3250 1201 c0 -28 3 -30 43 -33 l42 -3 3 -127 3 -128 34 0 34 0 3
128 3 127 43 3 c39 3 42 5 42 33 l0 29 -125 0 -125 0 0 -29z"/>
<path d="M3537 1223 c-4 -3 -7 -75 -7 -160 l0 -153 134 0 134 0 7 30 c6 29 9
30 61 30 52 0 56 -2 65 -30 10 -26 16 -30 50 -30 21 0 39 3 39 8 0 4 -24 75
-53 157 l-53 150 -44 3 -45 3 -50 -145 c-33 -97 -53 -140 -58 -130 -5 9 -25
14 -57 14 l-50 0 0 130 0 130 -33 0 c-19 0 -37 -3 -40 -7z"/>
<path d="M4084 1216 c-35 -15 -44 -33 -44 -79 0 -43 10 -56 72 -92 35 -21 53
-38 53 -51 0 -17 -7 -19 -60 -19 -57 0 -60 -1 -63 -26 -4 -31 15 -39 95 -39
67 0 113 34 113 85 0 42 -23 69 -85 103 -34 19 -50 33 -50 47 0 18 6 20 58 19
56 -1 57 -1 57 26 0 23 -5 29 -31 34 -47 9 -80 7 -115 -8z"/>
<path d="M4343 1223 c-31 -6 -63 -50 -63 -84 0 -35 31 -70 90 -102 28 -16 45
-32 45 -44 0 -16 -8 -18 -62 -17 -57 1 -62 -1 -66 -23 -6 -32 29 -46 105 -41
87 6 123 52 94 121 -10 24 -29 41 -70 63 -43 22 -56 34 -54 49 3 17 10 20 55
19 44 -1 53 1 59 18 3 11 1 25 -4 30 -12 12 -94 19 -129 11z"/>
<path d="M4540 1071 l0 -161 40 0 41 0 -3 158 -3 157 -37 3 -38 3 0 -160z"/>
<path d="M4750 1226 c0 -2 -25 -75 -55 -160 l-54 -156 40 0 c36 0 41 3 51 30
10 30 12 31 66 28 51 -3 57 -5 62 -28 5 -21 12 -25 48 -28 23 -2 42 -2 42 0 0
2 -24 73 -54 158 l-54 155 -46 3 c-25 2 -46 1 -46 -2z"/>
<path d="M4977 1223 c-4 -3 -7 -75 -7 -160 l0 -153 35 0 35 0 0 102 0 102 60
-102 61 -102 39 0 40 0 0 160 0 160 -36 0 -35 0 3 -105 c2 -58 3 -105 2 -105
0 0 -25 39 -54 88 -29 48 -60 95 -68 105 -15 17 -62 23 -75 10z"/>
</g>
</svg>
